<svg id="deliver" xmlns="http://www.w3.org/2000/svg" xmlns:xlink="http://www.w3.org/1999/xlink" width="44.668" height="26.882" viewBox="0 0 44.668 26.882">
  <defs>
    <clipPath id="clip-path">
      <rect id="Rectángulo_4958" data-name="Rectángulo 4958" width="44.668" height="26.882" fill="#4949ea"/>
    </clipPath>
  </defs>
  <g id="Grupo_12725" data-name="Grupo 12725" clip-path="url(#clip-path)">
    <path id="Trazado_11797" data-name="Trazado 11797" d="M8.3,4.723l.493-1.235a1.13,1.13,0,0,0-1.048-1.55H1.624a1.129,1.129,0,0,0-1.048.71L.082,3.884a1.129,1.129,0,0,0,1.048,1.55H7.25A1.131,1.131,0,0,0,8.3,4.723" transform="translate(0 1.784)" fill="#4949ea"/>
    <path id="Trazado_11798" data-name="Trazado 11798" d="M30.189,13.925c-.833-.374-2.773-1.313-4.6-2.03a2.454,2.454,0,0,1-.338-.165,2.307,2.307,0,0,1-.221-.15.636.636,0,0,1-.044-1,17.891,17.891,0,0,1,2.84-1.9c2.439-1.361,3.084-2.9,1.53-2.673,0,0-5.847.764-8.093,2.947l1.306-6.187A2.166,2.166,0,0,0,20.729,0H10.89A2.451,2.451,0,0,0,8.615,2.091L7.05,9.5H3.935a1.129,1.129,0,0,0-1.048.71L2.393,11.44a1.13,1.13,0,0,0,1.048,1.55h4.5a1.084,1.084,0,0,0,.284-.044,1.431,1.431,0,0,0,.315.044h11.87l.138-.659c.336.739,1.292,1.726,3.873,2.592,4.689,1.571,4.641,1.884-2.642,6.87l0-.006a5.084,5.084,0,0,0-3.3-4.752,1.08,1.08,0,0,0-.764-.342H5.963a1.133,1.133,0,0,0-1.048.71l-.493,1.235a1.13,1.13,0,0,0,1.048,1.55h6.4a5.017,5.017,0,0,0-.282,1.6,5.081,5.081,0,0,0,9.891,1.649c4.462-1.628,14.138-7.074,8.71-9.512" transform="translate(2.127)" fill="#4949ea"/>
    <path id="Trazado_11799" data-name="Trazado 11799" d="M19.561,6.07c.344-1.826-.253-2.193-.853-2.158a1.471,1.471,0,0,0-1.363,1.327,3.475,3.475,0,0,0,1.3,2.727c2.275,2.277,4.224,2.554,4.282,2.031S19.2,7.983,19.561,6.07" transform="translate(15.952 3.598)" fill="#4949ea"/>
    <path id="Trazado_11800" data-name="Trazado 11800" d="M19.483,5.463A2.731,2.731,0,1,0,16.751,2.73a2.732,2.732,0,0,0,2.732,2.732" transform="translate(15.413)" fill="#4949ea"/>
    <path id="Trazado_11801" data-name="Trazado 11801" d="M23.052,8.261a5.093,5.093,0,1,0,5.094,5.094,5.095,5.095,0,0,0-5.094-5.094" transform="translate(16.524 7.601)" fill="#4949ea"/>
  </g>
</svg>
