<svg xmlns="http://www.w3.org/2000/svg" width="38.094" height="42.856" viewBox="0 0 38.094 42.856">
  <g id="desliza" transform="translate(-177 -544.653)">
    <g id="DESLIZA-2" data-name="DESLIZA" transform="translate(177 544.653)">
      <path id="Trazado_8489" data-name="Trazado 8489" d="M197.382,201.859a.794.794,0,0,0,.189-1.565l-2.3-.567a29.391,29.391,0,0,1,22.5.877.793.793,0,0,0,.664-1.441,30.974,30.974,0,0,0-23.984-.825l1.121-2.182a.794.794,0,1,0-1.412-.725l-2.058,4a.9.9,0,0,0-.1.448c0,.023,0,.045.006.068a.893.893,0,0,0,.05.21c.006.017,0,.036.013.053a.78.78,0,0,0,.206.267.9.9,0,0,0,.414.246l4.5,1.108A.829.829,0,0,0,197.382,201.859Z" transform="translate(-192 -195)" fill="#2c4492"/>
      <path id="Trazado_8490" data-name="Trazado 8490" d="M230.6,230.826l-1.019-1.51a5.212,5.212,0,0,1-.882-2.552l-.217-3.141a12.466,12.466,0,0,0-2.109-6.109l-4.975-7.374a3.541,3.541,0,0,0-4.833-1.008,3.367,3.367,0,0,0-1.282,1.52,3.532,3.532,0,0,0-4.657-.8,3.363,3.363,0,0,0-1.354,1.749,3.524,3.524,0,0,0-4-.156A3.371,3.371,0,0,0,204,212.94l-2.516-3.73a3.541,3.541,0,0,0-4.833-1.008,3.365,3.365,0,0,0-1.484,2.171,3.421,3.421,0,0,0,.526,2.619l8.222,12.189-2.627-.254a3.153,3.153,0,0,0-2.355.726,3.082,3.082,0,0,0-1.1,2.144,3.205,3.205,0,0,0,1.923,3.16l14.169,6.206a1.969,1.969,0,0,1,.84.7l1.521,2.255a.794.794,0,0,0,1.317-.887l-1.521-2.255a3.547,3.547,0,0,0-1.518-1.265L200.4,229.5a1.614,1.614,0,0,1-.977-1.587,1.5,1.5,0,0,1,.536-1.048,1.588,1.588,0,0,1,1.18-.361l3.93.38,1,1.489a.794.794,0,1,0,1.316-.888L197.013,212.1a1.851,1.851,0,0,1-.287-1.414,1.793,1.793,0,0,1,.791-1.156,1.945,1.945,0,0,1,2.655.563l4.141,6.139v0l4.227,6.265a.776.776,0,0,0,.2.2c.017.012.032.024.049.034a.807.807,0,0,0,.243.1c.016,0,.031,0,.047.006a.865.865,0,0,0,.12.014.834.834,0,0,0,.1-.014.742.742,0,0,0,.083-.013.785.785,0,0,0,.262-.109.793.793,0,0,0,.214-1.1l-4.227-6.267a1.849,1.849,0,0,1-.287-1.413,1.8,1.8,0,0,1,.792-1.156,1.946,1.946,0,0,1,2.654.563l4.728,7.009a.8.8,0,0,0,.2.2c.016.011.031.022.048.033a.8.8,0,0,0,.244.1c.015,0,.029,0,.044.006a.9.9,0,0,0,.121.014.686.686,0,0,0,.1-.015.729.729,0,0,0,.083-.012.78.78,0,0,0,.476-1.21l-3.849-5.706a1.851,1.851,0,0,1-.288-1.415,1.8,1.8,0,0,1,.792-1.156,1.947,1.947,0,0,1,2.654.563l4.352,6.451a.794.794,0,0,0,1.317-.887l-2.887-4.28a1.848,1.848,0,0,1-.287-1.414,1.793,1.793,0,0,1,.791-1.155,1.948,1.948,0,0,1,2.655.563l4.974,7.374a10.889,10.889,0,0,1,1.842,5.331l.216,3.141a6.8,6.8,0,0,0,1.15,3.33l1.019,1.51a.794.794,0,1,0,1.316-.887Z" transform="translate(-192.64 -197.61)" fill="#2c4492"/>
    </g>
  </g>
</svg>
