<svg xmlns="http://www.w3.org/2000/svg" width="26.248" height="34.256" viewBox="0 0 26.248 34.256">
  <path id="Enviar_a" data-name="Enviar a" d="M51.685,20.757a11.3,11.3,0,0,1-.8,5.587c-.166.4-.351.781-.554,1.162-3.344,6.268-8.165,11.509-13,16.741-.822.888-1.816.938-2.406.1a77.061,77.061,0,0,1-7.711-13.106,17.2,17.2,0,0,1-1.68-5.772c-.289-4.22,1.49-7.89,4.851-10.879,3.962-3.523,8.461-4.675,13.139-3.391,4.628,1.27,7.316,4.424,8.1,9.14.023.139.041.278.058.418M46.073,23.3a6.465,6.465,0,0,0-6.593-7.373A8.685,8.685,0,0,0,31.2,23.3a6.394,6.394,0,0,0,6.634,7.366A8.569,8.569,0,0,0,46.073,23.3" transform="translate(-25.505 -10.69)" fill="#dbfe01"/>
</svg>
