<svg id="Grupo_2981" data-name="Grupo 2981" xmlns="http://www.w3.org/2000/svg" width="18.634" height="18.634" viewBox="0 0 18.634 18.634">
  <circle id="Elipse_179" data-name="Elipse 179" cx="9.317" cy="9.317" r="9.317" fill="#22274e"/>
  <path id="Trazado_8513" data-name="Trazado 8513" d="M198.212,1697.881v-.018h-.463v.018a7.647,7.647,0,1,0,.463,0Zm0,1.56v-1.1a7.152,7.152,0,0,1,4.677,1.937l-.587.587-.016-.014-3.9,3.9a1.4,1.4,0,0,0-.651-.167,1.378,1.378,0,0,0-.7.2l-2.624-2.579-.655.655,2.683,2.637a1.361,1.361,0,0,0-.091.48,1.391,1.391,0,1,0,2.671-.542l3.924-3.925-.312-.313.587-.587a7.149,7.149,0,0,1,1.935,4.676h-1.215v.463h1.215a7.151,7.151,0,0,1-1.935,4.677l-.86-.86-.328.328.86.86a7.148,7.148,0,0,1-4.677,1.935v-1.333h-.463v1.333a7.148,7.148,0,0,1-4.676-1.935l.86-.86-.328-.328-.86.86a7.145,7.145,0,0,1-1.937-4.677h1.217v-.463h-1.217a7.143,7.143,0,0,1,1.937-4.676l.86.86.328-.327-.86-.86a7.151,7.151,0,0,1,4.676-1.937v1.1Z" transform="translate(-188.663 -1696.199)" fill="#fff"/>
</svg>
