<svg xmlns="http://www.w3.org/2000/svg" width="25.572" height="25.782" viewBox="0 0 25.572 25.782">
  <g id="ICON-busc" transform="translate(0 0)">
    <path id="Trazado_949" data-name="Trazado 949" d="M1369.464,534.013h1.235v-1.245a.233.233,0,0,0-.218-.219h-1.017a.193.193,0,0,0-.217.219v1.026A.193.193,0,0,0,1369.464,534.013Z" transform="translate(-1361.849 -528.448)" fill="#f5f5f5"/>
    <path id="Trazado_950" data-name="Trazado 950" d="M1369.247,535.489v1.025a.227.227,0,0,0,.072.146.221.221,0,0,0,.145.074h1.017a.194.194,0,0,0,.218-.22v-1.245h-1.235C1369.247,535.269,1369.247,535.343,1369.247,535.489Z" transform="translate(-1361.849 -529.441)" fill="#f5f5f5"/>
    <path id="Trazado_951" data-name="Trazado 951" d="M1372.231,535.991a2.116,2.116,0,0,0,2.106,2.123h.508a.233.233,0,0,0,.218-.22v-1.025a.233.233,0,0,0-.218-.22h-.508a.651.651,0,0,1-.655-.658v-.733h1.162a.326.326,0,0,0,.218-.293v-.806a.232.232,0,0,0-.218-.219h-1.235v-1.172a.231.231,0,0,0-.217-.219h-.944c-.073,0-.146.146-.146.219v1.172h-1.453v1.318h1.453Z" transform="translate(-1362.246 -528.448)" fill="#f5f5f5"/>
    <path id="Trazado_952" data-name="Trazado 952" d="M1383.382,531.148a9.029,9.029,0,0,0-6.456-2.717,9.388,9.388,0,0,0-3.51.7,1.515,1.515,0,0,0-.815,1.959,1.494,1.494,0,0,0,1.942.822,6.51,6.51,0,0,1,2.445-.505,6.249,6.249,0,0,1,4.387,1.832,6.1,6.1,0,0,1,1.818,4.423,6.35,6.35,0,0,1-1.818,4.423,5.991,5.991,0,0,1-4.387,1.833,6.248,6.248,0,0,1-4.387-1.833h0a6.325,6.325,0,0,1-1.818-3.791,1.481,1.481,0,1,0-2.946.315,9.4,9.4,0,0,0,1.692,4.487l-1.441,1.39a2.132,2.132,0,0,0-.627-.063,2.834,2.834,0,0,0-2.006.822l-4.074,4.107a2.78,2.78,0,0,0-.815,2.022,2.883,2.883,0,0,0,.815,2.022h0a2.731,2.731,0,0,0,2.006.822,2.833,2.833,0,0,0,2.006-.822l4.074-4.107a2.78,2.78,0,0,0,.815-2.022c0-.19-.063-.443-.063-.633l.006-.005a2.686,2.686,0,0,1,3.066-.481,8.783,8.783,0,0,0,3.7.8,8.925,8.925,0,0,0,6.456-2.717,9.179,9.179,0,0,0,2.7-6.508A10.15,10.15,0,0,0,1383.382,531.148Z" transform="translate(-1360.568 -528.431)" fill="#f5f5f5"/>
    <path id="Trazado_953" data-name="Trazado 953" d="M1369.538,536.593" transform="translate(-1361.829 -529.579)" fill="#f5f5f5"/>
  </g>
</svg>
