<svg xmlns="http://www.w3.org/2000/svg" xmlns:xlink="http://www.w3.org/1999/xlink" width="30.215" height="24.548" viewBox="0 0 30.215 24.548">
  <defs>
    <clipPath id="clip-path">
      <rect id="Rectángulo_4959" data-name="Rectángulo 4959" width="30.215" height="24.548" fill="#4949ea"/>
    </clipPath>
  </defs>
  <g id="tiempo" transform="translate(0 0)">
    <g id="Grupo_12726" data-name="Grupo 12726" transform="translate(0 0)" clip-path="url(#clip-path)">
      <path id="Trazado_11802" data-name="Trazado 11802" d="M18.812,3.255V2.3H20.9V0H14.161V2.3h2.09v.973a10.625,10.625,0,0,0-5.8,2.589H3.689a.781.781,0,0,0-.7.6L2.653,7.5c-.2.63.168,1.312.7,1.312h4.78c-.118.219-.251.43-.354.66a1.017,1.017,0,0,0,1.855.835A8.653,8.653,0,1,1,9.07,15.68a1.017,1.017,0,0,0-1.989.426A10.688,10.688,0,1,0,18.812,3.255" transform="translate(1.996 0.001)" fill="#4949ea"/>
      <path id="Trazado_11803" data-name="Trazado 11803" d="M11.746,4.712a.812.812,0,0,0-.813.813V8.5a2,2,0,0,0-1.04,1.736,2.034,2.034,0,0,0,2.034,2.034,1.97,1.97,0,0,0,.9-.232l3.229,2.368a.813.813,0,0,0,.96-1.312l-3.162-2.32a1.95,1.95,0,0,0,.11-.538,2.011,2.011,0,0,0-1.4-1.906V5.525a.813.813,0,0,0-.812-.813" transform="translate(7.601 3.621)" fill="#4949ea"/>
      <path id="Trazado_11804" data-name="Trazado 11804" d="M6.746,9.55H3.237c-.18,0-.345.239-.41.6l-.2,1.047c-.117.628.1,1.312.414,1.312H6.551c.182,0,.345-.237.414-.6l.195-1.049c.117-.628-.1-1.312-.414-1.312" transform="translate(1.997 7.338)" fill="#4949ea"/>
      <path id="Trazado_11805" data-name="Trazado 11805" d="M7.276,8.791l.338-1.047c.2-.628-.172-1.312-.718-1.312H3.087a.793.793,0,0,0-.718.6L2.031,8.08c-.2.628.17,1.314.718,1.314H6.56a.8.8,0,0,0,.716-.6" transform="translate(1.518 4.943)" fill="#4949ea"/>
      <path id="Trazado_11806" data-name="Trazado 11806" d="M3.585,9.55H.81c-.232,0-.437.239-.523.6L.041,11.2c-.149.628.126,1.312.522,1.312H3.339c.23,0,.437-.237.522-.6l.248-1.049c.147-.628-.124-1.312-.523-1.312" transform="translate(0 7.338)" fill="#4949ea"/>
    </g>
  </g>
</svg>
