<svg id="LOGO_GODELIVER" data-name="LOGO GODELIVER" xmlns="http://www.w3.org/2000/svg" xmlns:xlink="http://www.w3.org/1999/xlink" width="172.918" height="63.318" viewBox="0 0 172.918 63.318">
  <defs>
    <clipPath id="clip-path">
      <rect id="Rectángulo_4933" data-name="Rectángulo 4933" width="172.918" height="63.318" fill="none"/>
    </clipPath>
  </defs>
  <g id="Grupo_12690" data-name="Grupo 12690" transform="translate(0 0)" clip-path="url(#clip-path)">
    <path id="Trazado_11483" data-name="Trazado 11483" d="M62.128,23.579a7.9,7.9,0,0,0-.028.819c0,2.369,1.255,3.83,3.565,3.83a7.029,7.029,0,0,0,5-2.338L72.8,27.233a9.343,9.343,0,0,1-7.161,3.361c-4.093,0-6.578-2.514-6.578-6.459,0-5.319,3.684-9.733,8.945-9.733,4.034,0,6.459,2.486,6.459,6.344a12.066,12.066,0,0,1-.408,2.834Zm.38-2.045h8.885c.03-.321.059-.614.059-.906,0-2.456-1.344-3.858-3.535-3.858-2.777,0-4.648,2.1-5.408,4.764" transform="translate(45.8 11.168)" fill="#fff"/>
    <path id="Trazado_11484" data-name="Trazado 11484" d="M71.7,10.516h2.981l-4.034,22.8H67.663Z" transform="translate(52.473 8.155)" fill="#fff"/>
    <path id="Trazado_11485" data-name="Trazado 11485" d="M73.567,14.566h2.981L73.771,30.174H70.79Z" transform="translate(54.898 11.296)" fill="#fff"/>
    <path id="Trazado_11486" data-name="Trazado 11486" d="M72.617,12.677a2.015,2.015,0,0,1,2.045-2.045,1.626,1.626,0,0,1,1.7,1.694,1.992,1.992,0,0,1-2.017,2.047,1.634,1.634,0,0,1-1.724-1.7" transform="translate(56.315 8.245)" fill="#fff"/>
    <path id="Trazado_11487" data-name="Trazado 11487" d="M74.329,14.566h3.215L80.35,26.755,87.54,14.566h3.331L81.314,30.174H78.333Z" transform="translate(57.642 11.296)" fill="#fff"/>
    <path id="Trazado_11488" data-name="Trazado 11488" d="M85.333,23.579a7.9,7.9,0,0,0-.028.819c0,2.369,1.255,3.83,3.565,3.83a7.029,7.029,0,0,0,5-2.338L96,27.233a9.343,9.343,0,0,1-7.161,3.361c-4.093,0-6.578-2.514-6.578-6.459,0-5.319,3.684-9.733,8.945-9.733,4.034,0,6.459,2.486,6.459,6.344a12.067,12.067,0,0,1-.408,2.834Zm.38-2.045H94.6c.03-.321.059-.614.059-.906,0-2.456-1.344-3.858-3.535-3.858-2.777,0-4.648,2.1-5.408,4.764" transform="translate(63.795 11.168)" fill="#fff"/>
    <path id="Trazado_11489" data-name="Trazado 11489" d="M93.586,14.694H96.48l-.439,2.456c1.431-1.9,3.624-2.748,6.429-2.748l-.5,2.748c-3.565,0-6.138,1.87-6.633,4.529L93.82,30.3H90.839Z" transform="translate(70.446 11.168)" fill="#fff"/>
    <path id="Trazado_11490" data-name="Trazado 11490" d="M67.681,19.743c0,7.336-5.261,12.977-12.567,12.977H47.163l3.83-21.627h7.773c5.554,0,8.915,3.389,8.915,8.65m-3.185.293c0-3.917-2.251-6.372-6.284-6.372h-4.59L50.728,30.149h4.59c5.582,0,9.178-4.881,9.178-10.113" transform="translate(36.575 8.603)" fill="#fff"/>
    <path id="Trazado_11491" data-name="Trazado 11491" d="M87.118,30.56h14.188a2.276,2.276,0,1,0,0-4.552H87.118a2.276,2.276,0,1,0,0,4.552" transform="translate(65.795 20.169)" fill="#fff"/>
    <path id="Trazado_11492" data-name="Trazado 11492" d="M78.3,30.56H84a2.276,2.276,0,1,0,0-4.552H78.3a2.276,2.276,0,0,0,0,4.552" transform="translate(58.958 20.169)" fill="#fff"/>
    <path id="Trazado_11493" data-name="Trazado 11493" d="M61.5,30.56H83.007a2.276,2.276,0,1,0,0-4.552H61.5a2.276,2.276,0,0,0,0,4.552" transform="translate(45.924 20.169)" fill="#fff"/>
    <path id="Trazado_11494" data-name="Trazado 11494" d="M88.436,34.846h3.153a2.276,2.276,0,0,0,0-4.552H88.436a2.276,2.276,0,1,0,0,4.552" transform="translate(66.817 23.493)" fill="#fff"/>
    <path id="Trazado_11495" data-name="Trazado 11495" d="M73.406,34.846h5.7a2.276,2.276,0,1,0,0-4.552h-5.7a2.276,2.276,0,1,0,0,4.552" transform="translate(55.162 23.493)" fill="#fff"/>
    <path id="Trazado_11496" data-name="Trazado 11496" d="M59.391,23.72a14.624,14.624,0,0,1-1.037,7.232c-.215.513-.455,1.01-.717,1.5-4.329,8.112-10.568,14.9-16.823,21.668-1.064,1.149-2.351,1.214-3.114.13a99.742,99.742,0,0,1-9.98-16.963,22.266,22.266,0,0,1-2.175-7.471c-.375-5.461,1.928-10.213,6.278-14.082,5.128-4.559,10.951-6.051,17.006-4.389,5.991,1.644,9.469,5.726,10.488,11.83.03.179.053.36.075.542m-7.264,3.3a8.368,8.368,0,0,0-8.533-9.543A11.241,11.241,0,0,0,32.87,27.016a8.276,8.276,0,0,0,8.586,9.534,11.091,11.091,0,0,0,10.671-9.533" transform="translate(19.779 8.29)" fill="#dbfe01"/>
    <path id="Trazado_11497" data-name="Trazado 11497" d="M38.46,26.755c-1.271,9.02-8.405,15.088-17.549,15.088C12.3,41.843,6.971,36.8,6.971,29.051c0-10.538,7.873-18.368,18.614-18.368,4.757,0,8.324,1.394,10.742,3.608L31.12,18.472a9.092,9.092,0,0,0-6.067-1.845c-6.273,0-10.742,5.781-10.742,11.972,0,4.469,2.706,7.3,7.175,7.3,4.346,0,7.913-2.5,9.02-6.15H23.494L24.561,23.8H38.829c-.082.945-.165,1.8-.369,2.953" transform="translate(5.406 8.285)" fill="#fff"/>
    <path id="Trazado_11498" data-name="Trazado 11498" d="M13.046,16.51H28.134l2.745-13C31.257,1.726,30.108,0,28.544,0h-12.5a3.118,3.118,0,0,0-2.894,2.66L10.9,13.288a2.53,2.53,0,0,0,2.145,3.223" transform="translate(8.402 0)" fill="#fff"/>
    <path id="Trazado_11499" data-name="Trazado 11499" d="M33.572,14.382c-1.06-.476-3.524-1.669-5.85-2.58a2.969,2.969,0,0,1-.43-.211,2.741,2.741,0,0,1-.281-.19.806.806,0,0,1-.055-1.275,22.673,22.673,0,0,1,3.61-2.42c3.1-1.731,3.92-3.691,1.944-3.4,0,0-12.42,1.6-11.338,6.64,0,0-1.106,2.635,5.064,4.7s5.92,2.4-4.336,9.4,21.927-6.065,11.672-10.671" transform="translate(15.398 3.318)" fill="#fff"/>
    <path id="Trazado_11500" data-name="Trazado 11500" d="M30.021,5.376a1.871,1.871,0,0,0-1.733,1.687c-.076.827.21,2.017,1.657,3.466,2.894,2.894,5.371,3.246,5.444,2.582s-4.741-2.56-4.283-4.991c.437-2.322-.323-2.788-1.085-2.743" transform="translate(21.929 4.167)" fill="#fff"/>
    <path id="Trazado_11501" data-name="Trazado 11501" d="M34.417,3.471A3.472,3.472,0,1,1,30.946,0a3.47,3.47,0,0,1,3.471,3.471" transform="translate(21.305 0)" fill="#fff"/>
    <path id="Trazado_11502" data-name="Trazado 11502" d="M7.056,21.137H.991a.961.961,0,0,1-.968-1.207l.222-1.115a1.549,1.549,0,0,1,1.449-1.207H7.759a.961.961,0,0,1,.966,1.207L8.5,19.929a1.547,1.547,0,0,1-1.447,1.207" transform="translate(0 13.654)" fill="#fff"/>
    <path id="Trazado_11503" data-name="Trazado 11503" d="M12.429,18.273h-5.8a.961.961,0,0,1-.966-1.207l.222-1.115a1.549,1.549,0,0,1,1.447-1.207h5.8A.961.961,0,0,1,14.1,15.95l-.222,1.115a1.547,1.547,0,0,1-1.447,1.207" transform="translate(4.371 11.433)" fill="#fff"/>
    <path id="Trazado_11504" data-name="Trazado 11504" d="M5.841,18.273H3.183a.961.961,0,0,1-.966-1.207l.222-1.115a1.549,1.549,0,0,1,1.447-1.207H6.544A.961.961,0,0,1,7.51,15.95l-.222,1.115a1.547,1.547,0,0,1-1.447,1.207" transform="translate(1.701 11.433)" fill="#fff"/>
    <path id="Trazado_11505" data-name="Trazado 11505" d="M8.7,24H2.634a.961.961,0,0,1-.968-1.207l.222-1.115a1.549,1.549,0,0,1,1.449-1.207H9.4a.961.961,0,0,1,.966,1.207l-.222,1.115A1.547,1.547,0,0,1,8.7,24" transform="translate(1.274 15.875)" fill="#fff"/>
  </g>
</svg>
